<?xml version="1.0" encoding="utf-8"?>
<!-- Generator: Adobe Illustrator 22.0.0, SVG Export Plug-In . SVG Version: 6.00 Build 0)  -->
<svg version="1.1" id="Layer_1" xmlns="http://www.w3.org/2000/svg" xmlns:xlink="http://www.w3.org/1999/xlink" x="0px" y="0px"
	 viewBox="0 0 163.1 79.8" style="enable-background:new 0 0 163.1 79.8;" xml:space="preserve">
<style type="text/css">
	.st0{fill:#414142;}
	.st1{fill-rule:evenodd;clip-rule:evenodd;fill:#414142;}
</style>
<g>
	<g>
		<path class="st0" d="M79.3,41.6V43c0,1.3-0.3,2.2-0.9,2.7c-0.7,0.5-1.6,0.8-2.8,0.8c-1.2,0-2.1-0.2-2.8-0.6
			c-0.9-0.5-1.3-1.6-1.3-3.2v-5.1c0-1.1,0.2-1.9,0.5-2.3c0.4-0.5,0.9-0.9,1.5-1.1c0.4-0.1,1-0.2,1.9-0.2c1.3,0,2.2,0.2,2.8,0.6
			c0.4,0.3,0.6,0.6,0.8,1.1s0.2,1,0.2,1.7v1.3h-3v-1.1c0-0.7-0.2-1.1-0.7-1.1c-0.5,0-0.8,0.4-0.8,1.3v4.5c0,0.6,0.1,1,0.2,1.2
			c0.1,0.2,0.3,0.3,0.5,0.3c0.4,0,0.6-0.2,0.7-0.5c0.1-0.1,0.1-0.4,0.1-0.7v-1.2H79.3z"/>
		<path class="st0" d="M80.7,34.6h3.1v2.3c0.5-1.4,1.5-2.3,2.8-2.4v4c-0.3-0.1-0.6-0.1-0.7-0.1c-0.6,0-1,0.2-1.4,0.6
			c-0.3,0.3-0.4,0.7-0.5,1.1C84,40.5,84,41,84,41.5v4.8h-3.3V34.6z"/>
		<path class="st0" d="M90.3,30.2v3h-3v-3H90.3z M90.4,34.6v11.7h-3.1V34.6H90.4z"/>
		<path class="st0" d="M94.9,38.4h-2.9c0-0.5,0-0.8,0-0.9c0-0.8,0.1-1.3,0.3-1.7c0.3-0.5,0.8-0.9,1.6-1.1c0.6-0.2,1.2-0.3,1.9-0.3
			c1.1,0,2,0.2,2.7,0.7c0.7,0.5,1.1,1.4,1.1,2.8v6.4c0,0.8,0.1,1.5,0.4,2H97c-0.1-0.4-0.2-0.8-0.2-1.4c-0.2,0.5-0.4,0.9-0.7,1.1
			c-0.2,0.2-0.5,0.4-0.7,0.4c-0.2,0.1-0.5,0.1-0.9,0.1c-1,0-1.7-0.2-2.1-0.7c-0.3-0.4-0.5-0.8-0.6-1.3c-0.1-0.4-0.1-0.9-0.1-1.5
			c0-0.9,0.1-1.6,0.2-2.1c0.2-0.7,0.7-1.1,1.5-1.5c0.2-0.1,0.8-0.3,1.8-0.6c0.9-0.3,1.4-0.7,1.4-1.2c0-0.8-0.3-1.2-0.9-1.2
			c-0.6,0-0.9,0.4-0.9,1.3C94.9,38,94.9,38.2,94.9,38.4z M96.6,40.8c-0.6,0.3-1.1,0.5-1.3,0.8c-0.2,0.2-0.3,0.6-0.3,1.2
			c0,0.8,0.3,1.3,0.8,1.3c0.4,0,0.6-0.2,0.7-0.6c0.1-0.2,0.1-0.5,0.1-0.9V40.8z"/>
	</g>
	<path class="st1" d="M37.1,53.6c2-0.1,3.7-0.8,5.2-1.7c1.7-1,2.4-2.1,4.1-3c3.5-2.1,6.2,0.7,4.7,3.6c-0.2,0.4-0.4,0.7-0.7,1.1
		c-0.3,0.4-0.6,0.7-0.8,1.1c0.7-0.2,1.6-0.9,2.1-1.3c2-1.7-0.1-1.2,1.2-5.3c0.8-2.5,5.3-0.6,7.9-2.5c0.9-0.7,2.3-3.3,1.5-5
		c-1.3-0.4-2.4,0.2-4.3-1.4c-1.7-1.4-1.9-2.6-2.6-3c-2.2-1.2-3.3,0.3-5.3-3.2c-0.3-0.5-0.7-1.6-1.1-1.8c-1.4,0.5-1.5,4.8-1.5,4.8
		c-0.1,0.2-0.9,1-1.1,1.2c-0.7,0.7-1.3,1.5-1.9,2.4c-2.1,2.9-4.2,7.7-5.9,11.1C38.3,51.4,37.3,53.1,37.1,53.6"/>
	<path class="st1" d="M44.8,56.5c0.4-0.3,1.3-0.8,1.8-1c5.2-3.4,4.1-8-0.1-4.9c-1.1,0.8-1.9,1.6-3.1,2.4c-3.9,2.5-9,3-13.7,1.5
		c-0.7-0.2-1.3-0.5-2-0.8c-0.6-0.3-1.3-0.8-1.8-1c0.4,1.1,2.8,3.4,3.6,4.2c7.6,6.9,19.8,7.5,28.3,1c1-0.8,5.5-4.9,5.2-6.3
		c-0.2-1.1-1.8-0.9-2.1,0c-0.1-0.8-0.1-1.8-1.1-1.7c-0.4,0-0.7,0.3-0.9,0.5l-0.6,0.7c0.1-1-0.1-1.8-1.2-1.7
		c-1.4,0.1-1.9,2.6-3.9,4.6C51.1,56.1,46.5,57.6,44.8,56.5"/>
	<path class="st1" d="M42.1,20.7c8.5-1,15.1,3.6,18.2,8c1.8,2.5,3.2,5.7,3.6,9.6c0.5,4.5-0.5,7.5-2.1,11c0.1,0.1,0,0,0.2,0.1
		c1.1,0.3,0.8,0,1.8,1c0,0,0-0.1,0.1-0.1c0.1,0.1,1.1-2.3,1.1-2.5c0.3-0.9,0.6-1.9,0.8-2.9c0.5-2.2,0.6-4.5,0.4-6.8
		c-0.5-4.5-2-7.9-4.1-10.9c-3.6-5-11-10.1-20.5-9c-7.3,1.1-11.6,5.1-12.4,8.8c-0.7,3.1-2.6,2.2,1.1-0.5
		C32.5,25.1,35.9,22.3,42.1,20.7"/>
	<path class="st1" d="M29.4,42.9c0.9-6-5-6.6-6.1-0.3C22.2,48.9,28.5,49.1,29.4,42.9"/>
	<path class="st1" d="M30.1,42.5c0.4,6,6.7,6.9,6.2,0.6C35.8,37.2,29.6,35.9,30.1,42.5"/>
	<path class="st1" d="M24.4,36.8c1.3-5.3-5-5.3-6.1,0.1C17.3,42.1,23.1,42.2,24.4,36.8"/>
	<path class="st1" d="M35.1,36.8c1,4.8,6.9,5.7,6.1,0.3C40.4,31.9,34,30.9,35.1,36.8"/>
	<path class="st0" d="M29.7,22.9c1.1-2,2.2-3.1,4.3-3.1c2.4,0,4.3,1.8,4.3,4.1c0,4.1-4.3,8.2-8.7,12.2C25.4,32.1,21,28,21,23.9
		c0-2.2,1.9-4.1,4.3-4.1C27.6,19.9,28.6,20.9,29.7,22.9"/>
	<g>
		<path class="st0" d="M104,34.7h0.2c0.8,0,1.5,0.2,2.2,0.7c0.5,0.5,0.8,1.2,0.8,2.1c0,0.4,0,0.8-0.1,1.2v0h0
			c0.7-1.8,1.8-2.8,3.2-2.8h0.1c0.9,0,1.7,0.3,2.3,1c0.3,0.3,0.5,0.8,0.7,1.3c0.2,0.5,0.4,2,0.5,4.3c0.1,0.8,0.2,1.3,0.3,1.6
			c0.2,0.5,0.5,0.8,0.9,1l0.3,0.1c-0.3,0.4-0.6,0.6-0.9,0.7c-0.3,0.1-0.5,0.2-0.7,0.2c-1,0-1.6-1.3-1.8-3.9c-0.4-2.5-1-3.7-1.9-3.7
			c-0.9,0-1.9,1.5-3,4.4c-0.4,1-0.7,1.5-1,1.5l-0.3,0h-0.2c-0.2,0-0.4-0.1-0.5-0.4c0-0.2-0.1-0.6-0.1-1l0.2-4.1
			c0-1.1-0.2-1.7-0.6-1.7h-0.1c-0.4,0-0.9,0.5-1.6,1.4c-0.3,0.5-0.6,1.2-1,2.3l-1.1,3.9c-0.3,0.9-0.6,1.4-1,1.4
			c-0.3,0-0.5-0.4-0.6-1.3l0-0.4v-0.4c0-1.8,0.4-3.8,1.2-6.1H100c-1.1,0-2-0.5-2.5-1.5l-0.2-0.4h0c0.6,0.3,1.2,0.4,1.8,0.4
			c0.9,0,1.8-0.3,2.7-1C102.5,35,103.2,34.7,104,34.7z"/>
		<path class="st0" d="M125.7,35.2h0.1c0.1,0,0.1,0.1,0.1,0.2v0.1c0,0.2-0.1,0.7-0.4,1.5c-0.6,2-1,3.7-1,4.9c0,0.8,0.2,1.4,0.6,1.7
			c0.2,0.1,0.5,0.1,0.7,0.1c1.4,0,2.4-1.3,3.1-3.9l0.4,1.4c0,1.2-0.5,2.4-1.5,3.6c-1.2,1-2.3,1.5-3.3,1.5h-0.4c-1,0-1.8-0.6-2.3-1.7
			l0-0.1h0c-1.3,1.2-2.5,1.8-3.7,1.8h0c-1.3,0-2.3-0.7-2.8-2c-0.2-0.4-0.2-0.8-0.2-1.3v-0.2c0-1.8,1.1-3.7,3.4-5.7
			c1.4-1.1,2.5-1.6,3.3-1.6c0.6,0,1.1,0.3,1.5,0.8C123.8,35.8,124.7,35.5,125.7,35.2z M117.7,42.7c0,0.4,0.1,0.7,0.4,0.9l0.2,0.1
			h0.1c1,0,2-1.4,3.2-4.2c0.3-0.9,0.4-1.4,0.4-1.6c0-0.3-0.2-0.5-0.4-0.5h0c-0.7,0-1.5,0.6-2.6,1.9c-0.6,0.8-1,1.8-1.2,2.8
			L117.7,42.7z"/>
		<path class="st0" d="M131.8,34.5h0.2c1.6,0,2.6,0.5,2.8,1.5c0,0.1,0,0.2,0,0.4v0.1c0,0.4-0.1,0.8-0.3,1.2c0-0.2-0.2-0.5-0.5-0.9
			c-0.2-0.2-0.5-0.3-0.8-0.5c-0.4-0.1-0.7-0.2-1.1-0.2h-0.3c-1-0.1-1.7,0.1-2,0.7c-0.1,0.2-0.1,0.3-0.1,0.4v0.1
			c0.6,0.6,1.5,1.1,2.6,1.5c1.4,0.5,2.4,1,3,1.5c0.8,0.6,1.1,1.4,1.1,2.2c0,1.5-0.8,2.6-2.4,3.2c-0.7,0.2-1.3,0.3-1.9,0.3h-0.3
			c-1.5,0-2.8-0.4-4-1.1c-0.6-0.4-0.9-0.9-0.9-1.5v-0.2c0-0.8,0.6-1.3,1.7-1.7l0.4-0.1l0,0v0c-0.3,0.3-0.4,0.6-0.4,1v0.1
			c0,0.7,0.7,1.1,2,1.4l0.4,0h0.2c1.1,0,1.8-0.4,2.1-1.1l0.1-0.4v-0.1c0-0.4-0.4-0.8-1.3-1.1c-3.1-1.3-4.6-2.6-4.6-4
			c0-1.1,0.9-1.9,2.6-2.5C130.7,34.5,131.3,34.5,131.8,34.5z"/>
	</g>
</g>
</svg>
