<?xml version="1.0" encoding="utf-8"?>
<!-- Generator: Adobe Illustrator 22.0.0, SVG Export Plug-In . SVG Version: 6.00 Build 0)  -->
<svg version="1.1" id="Layer_1" xmlns="http://www.w3.org/2000/svg" xmlns:xlink="http://www.w3.org/1999/xlink" x="0px" y="0px"
	 viewBox="0 0 1022.8 140" style="enable-background:new 0 0 1022.8 140;" xml:space="preserve">
<style type="text/css">
	.st0{clip-path:url(#SVGID_2_);}
	.st1{fill:#FC9EA1;}
	.st2{clip-path:url(#SVGID_4_);}
	.st3{clip-path:url(#SVGID_6_);}
	.st4{clip-path:url(#SVGID_8_);}
	.st5{clip-path:url(#SVGID_10_);}
</style>
<g>
	<g>
		<defs>
			<rect id="SVGID_1_" x="1.8" y="0" width="1020.5" height="139.3"/>
		</defs>
		<clipPath id="SVGID_2_">
			<use xlink:href="#SVGID_1_"  style="overflow:visible;"/>
		</clipPath>
		<g class="st0">
			<g>
				<path class="st1" d="M40.1,60.4c1.3,6-5.2,7.3-8.1,6.5S23.3,66,23.3,66s-5.9,0.1-8.8,0.9s-9.4-0.5-8.1-6.5s7.1-5.8,8.6-13.9
					c1.6-8.1,8.2-7.6,8.2-7.6s6.7-0.5,8.2,7.6C33.1,54.6,38.8,54.4,40.1,60.4z M29.3,38.4c3.5,1,7.5-1.8,8.7-6.2
					c1.3-4.5-0.5-8.9-4.1-9.9c-3.5-1-7.5,1.8-8.7,6.2C23.9,32.9,25.8,37.4,29.3,38.4z M44,36.8c-3.4-1.4-7.6,1-9.4,5.3
					c-1.8,4.3-0.4,8.9,3,10.3c3.4,1.4,7.6-1,9.4-5.3S47.4,38.2,44,36.8z M17.2,38.4c3.5-1,5.4-5.5,4.1-9.9c-1.3-4.5-5.2-7.3-8.7-6.2
					c-3.5,1-5.4,5.5-4.1,9.9C9.7,36.6,13.7,39.4,17.2,38.4z M8.9,52.4c3.4-1.4,4.7-6,3-10.3S6,35.4,2.5,36.8c-3.4,1.4-4.7,6-3,10.3
					C1.3,51.4,5.5,53.7,8.9,52.4z"/>
			</g>
			<g>
				<path class="st1" d="M259.1,74.2c0.8,3.7-3.2,4.5-5,4.1c-1.8-0.5-5.4-0.6-5.4-0.6s-3.7,0.1-5.4,0.6c-1.8,0.5-5.9-0.3-5-4.1
					c0.8-3.7,4.4-3.6,5.4-8.6s5.1-4.7,5.1-4.7s4.1-0.3,5.1,4.7C254.7,70.6,258.3,70.5,259.1,74.2z M252.4,60.6
					c2.2,0.6,4.6-1.1,5.4-3.9c0.8-2.8-0.3-5.5-2.5-6.2c-2.2-0.6-4.6,1.1-5.4,3.9C249,57.2,250.2,59.9,252.4,60.6z M261.5,59.5
					c-2.1-0.9-4.7,0.6-5.8,3.3c-1.1,2.7-0.3,5.5,1.9,6.4c2.1,0.9,4.7-0.6,5.8-3.3C264.4,63.3,263.6,60.4,261.5,59.5z M244.9,60.6
					c2.2-0.6,3.3-3.4,2.5-6.2s-3.2-4.5-5.4-3.9s-3.3,3.4-2.5,6.2C240.2,59.5,242.7,61.2,244.9,60.6z M239.7,69.2
					c2.1-0.9,3-3.7,1.9-6.4c-1.1-2.7-3.7-4.1-5.8-3.3c-2.1,0.9-3,3.7-1.9,6.4C235,68.6,237.6,70.1,239.7,69.2z"/>
			</g>
			<g>
				<path class="st1" d="M175.3,42.9c-1.3,3.6-5.2,2.2-6.4,0.8c-1.3-1.4-4.3-3.3-4.3-3.3s-3.2-1.9-4.9-2.4c-1.8-0.5-4.8-3.4-2.2-6.1
					c2.7-2.8,5.6-0.7,9.1-4.5s6.8-1.3,6.8-1.3s3.7,1.9,1.9,6.7C173.5,37.6,176.6,39.3,175.3,42.9z M176.8,27.8
					c1.5,1.7,4.5,1.5,6.7-0.4c2.1-1.9,2.6-4.9,1.1-6.6s-4.5-1.5-6.7,0.4C175.7,23.1,175.2,26.1,176.8,27.8z M185.1,31.7
					c-1.3-1.9-4.3-2-6.7-0.3c-2.3,1.7-3.1,4.6-1.8,6.4c1.3,1.8,4.3,2,6.7,0.3C185.6,36.4,186.4,33.5,185.1,31.7z M170.4,23.8
					c2.2,0.6,4.6-1.1,5.4-3.9c0.8-2.8-0.4-5.5-2.6-6.2c-2.2-0.6-4.6,1.1-5.4,3.9S168.2,23.2,170.4,23.8z M161.4,28.5
					c2.3,0.4,4.5-1.6,5-4.5s-1-5.5-3.2-5.8c-2.3-0.4-4.5,1.6-5,4.5C157.7,25.5,159.2,28.1,161.4,28.5z"/>
			</g>
			<g>
				<path class="st1" d="M202.9,67.8c0.4,1.6-1.4,2-2.2,1.8s-2.4-0.2-2.4-0.2s-1.6,0-2.4,0.2c-0.8,0.2-2.6-0.1-2.2-1.8
					c0.4-1.6,1.9-1.6,2.3-3.8c0.4-2.2,2.2-2.1,2.2-2.1s1.8-0.1,2.2,2.1C200.9,66.3,202.5,66.2,202.9,67.8z M199.9,61.9
					c1,0.3,2-0.5,2.4-1.7s-0.1-2.4-1.1-2.7s-2,0.5-2.4,1.7C198.5,60.4,199,61.6,199.9,61.9z M203.9,61.4c-0.9-0.4-2.1,0.3-2.5,1.4
					c-0.5,1.2-0.1,2.4,0.8,2.8c0.9,0.4,2.1-0.3,2.5-1.4C205.2,63.1,204.8,61.8,203.9,61.4z M196.6,61.9c1-0.3,1.5-1.5,1.1-2.7
					s-1.4-2-2.4-1.7s-1.5,1.5-1.1,2.7S195.7,62.1,196.6,61.9z M194.4,65.7c0.9-0.4,1.3-1.6,0.8-2.8s-1.6-1.8-2.5-1.4
					c-0.9,0.4-1.3,1.6-0.8,2.8C192.3,65.4,193.4,66,194.4,65.7z"/>
			</g>
			<g>
				<path class="st1" d="M38.4,108.8c-1.9,3-5.1,0.9-6-0.6c-0.9-1.5-3.2-4-3.2-4s-2.5-2.4-4-3.2c-1.5-0.9-3.6-4.1-0.6-6
					s5.2,0.5,9.2-2.1c4-2.7,6.5,0.3,6.5,0.3s2.9,2.5,0.3,6.5C37.9,103.5,40.3,105.8,38.4,108.8z M43,95.3c1,1.9,3.8,2.3,6.1,1
					c2.4-1.3,3.4-3.9,2.4-5.7c-1-1.9-3.8-2.3-6.1-1C43,90.9,42,93.5,43,95.3z M49.7,100.7c-0.8-2-3.5-2.7-6-1.7s-3.8,3.5-3,5.4
					c0.8,2,3.5,2.7,6,1.7C49.1,105.1,50.5,102.7,49.7,100.7z M38,90.4c1.9,1,4.4,0,5.7-2.4s0.8-5.1-1-6.1c-1.9-1-4.4,0-5.7,2.4
					C35.7,86.6,36.2,89.4,38,90.4z M28.9,92.7c2,0.8,4.4-0.5,5.4-3s0.3-5.2-1.7-6s-4.4,0.5-5.4,3C26.2,89.2,26.9,91.9,28.9,92.7z"/>
			</g>
			<g>
				<path class="st1" d="M323.3,46.5c1.9,3-1.3,5-3.1,5.2s-4.9,1.3-4.9,1.3s-3.2,1.3-4.6,2.3s-5.2,1.6-5.7-1.9s2.7-4.6,1.9-9.3
					c-0.8-4.7,2.9-5.8,2.9-5.8s3.5-1.6,6,2.4C318.3,44.8,321.4,43.5,323.3,46.5z M313,36.7c2.1-0.2,3.7-2.5,3.5-5.2
					s-2.1-4.7-4.2-4.6c-2.1,0.2-3.7,2.5-3.5,5.2C308.9,34.9,310.8,36.9,313,36.7z M320.6,32.9c-2.1-0.1-3.9,2.1-4,4.8s1.6,4.9,3.7,5
					s3.9-2.1,4-4.8S322.7,32.9,320.6,32.9z M306.4,39.2c1.7-1.3,1.8-4.1,0.2-6.2c-1.6-2.2-4.3-2.9-6-1.6c-1.7,1.3-1.8,4.1-0.2,6.2
					C302,39.7,304.7,40.5,306.4,39.2z M304.7,48.5c1.6-1.4,1.4-4.2-0.5-6.2c-1.8-2-4.6-2.4-6.1-1c-1.6,1.4-1.4,4.2,0.5,6.2
					C300.4,49.5,303.2,49.9,304.7,48.5z"/>
			</g>
			<g>
				<path class="st1" d="M19.8,132.2c0.4,1.6-1.4,2-2.2,1.8c-0.8-0.2-2.4-0.2-2.4-0.2s-1.6,0-2.4,0.2c-0.8,0.2-2.6-0.1-2.2-1.8
					s1.9-1.6,2.3-3.8c0.4-2.2,2.2-2.1,2.2-2.1s1.8-0.1,2.2,2.1C17.8,130.6,19.4,130.5,19.8,132.2z M16.8,126.2c1,0.3,2-0.5,2.4-1.7
					s-0.1-2.4-1.1-2.7c-1-0.3-2,0.5-2.4,1.7C15.4,124.7,15.9,125.9,16.8,126.2z M20.8,125.7c-0.9-0.4-2.1,0.3-2.5,1.4
					c-0.5,1.2-0.1,2.4,0.8,2.8s2.1-0.3,2.5-1.4C22.1,127.4,21.7,126.1,20.8,125.7z M13.5,126.2c1-0.3,1.5-1.5,1.1-2.7
					s-1.4-2-2.4-1.7s-1.5,1.5-1.1,2.7S12.6,126.4,13.5,126.2z M11.3,130c0.9-0.4,1.3-1.6,0.8-2.8s-1.6-1.8-2.5-1.4s-1.3,1.6-0.8,2.8
					C9.2,129.7,10.3,130.3,11.3,130z"/>
			</g>
			<g>
				<path class="st1" d="M110.7,51.7c-0.4,2.7-3.3,2.2-4.3,1.4c-1.1-0.8-3.4-1.7-3.4-1.7s-2.4-0.9-3.7-1c-1.3-0.1-3.8-1.7-2.3-3.9
					c1.5-2.3,3.8-1.2,5.7-4.3c1.9-3.1,4.6-1.8,4.6-1.8s2.8,0.8,2.2,4.4C108.7,48.2,111.1,49,110.7,51.7z M109.8,41
					c1.3,1,3.3,0.4,4.6-1.2c1.2-1.6,1.2-3.7-0.1-4.7c-1.3-1-3.3-0.4-4.6,1.2C108.4,37.9,108.5,40,109.8,41z M116,42.7
					c-1.2-1.1-3.3-0.8-4.7,0.7c-1.4,1.5-1.6,3.6-0.4,4.7c1.2,1.1,3.3,0.8,4.7-0.7C117,45.9,117.2,43.8,116,42.7z M104.8,39.1
					c1.6,0.1,3-1.4,3.2-3.4s-1-3.8-2.6-3.9s-3,1.4-3.2,3.4C102,37.2,103.2,39,104.8,39.1z M99.2,43.5c1.6,0,2.9-1.7,2.8-3.7
					c0-2-1.4-3.7-3-3.6c-1.6,0-2.9,1.7-2.8,3.7C96.3,41.9,97.6,43.6,99.2,43.5z"/>
			</g>
		</g>
	</g>
	<g>
		<defs>
			<rect id="SVGID_3_" x="1.8" y="0" width="1020.5" height="139.3"/>
		</defs>
		<clipPath id="SVGID_4_">
			<use xlink:href="#SVGID_3_"  style="overflow:visible;"/>
		</clipPath>
		<g class="st2">
			<g>
				<path class="st1" d="M117.1,116.4c1.3,6-5.2,7.3-8.1,6.5s-8.7-0.9-8.7-0.9s-5.9,0.1-8.8,0.9s-9.4-0.5-8.1-6.5s7.1-5.8,8.6-13.9
					c1.6-8.1,8.2-7.6,8.2-7.6s6.7-0.5,8.2,7.6C110.1,110.6,115.8,110.4,117.1,116.4z M106.3,94.4c3.5,1,7.5-1.8,8.7-6.2
					c1.3-4.5-0.5-8.9-4.1-9.9c-3.5-1-7.5,1.8-8.7,6.2C100.9,88.9,102.8,93.4,106.3,94.4z M121,92.8c-3.4-1.4-7.6,1-9.4,5.3
					s-0.4,8.9,3,10.3s7.6-1,9.4-5.3C125.7,98.8,124.4,94.2,121,92.8z M94.2,94.4c3.5-1,5.4-5.5,4.1-9.9c-1.3-4.5-5.2-7.3-8.7-6.2
					c-3.5,1-5.4,5.5-4.1,9.9C86.7,92.6,90.7,95.4,94.2,94.4z M85.9,108.4c3.4-1.4,4.7-6,3-10.3c-1.8-4.3-5.9-6.7-9.4-5.3
					c-3.4,1.4-4.7,6-3,10.3C78.3,107.4,82.5,109.7,85.9,108.4z"/>
			</g>
			<g>
				<path class="st1" d="M336.1,130.2c0.8,3.7-3.2,4.5-5,4.1c-1.8-0.5-5.4-0.6-5.4-0.6s-3.7,0.1-5.4,0.6c-1.8,0.5-5.9-0.3-5-4.1
					s4.4-3.6,5.4-8.6s5.1-4.7,5.1-4.7s4.1-0.3,5.1,4.7C331.7,126.6,335.3,126.5,336.1,130.2z M329.4,116.6c2.2,0.6,4.6-1.1,5.4-3.9
					s-0.3-5.5-2.5-6.2c-2.2-0.6-4.6,1.1-5.4,3.9C326,113.2,327.2,115.9,329.4,116.6z M338.5,115.5c-2.1-0.9-4.7,0.6-5.8,3.3
					c-1.1,2.7-0.3,5.5,1.9,6.4c2.1,0.9,4.7-0.6,5.8-3.3S340.6,116.4,338.5,115.5z M321.9,116.6c2.2-0.6,3.3-3.4,2.5-6.2
					c-0.8-2.8-3.2-4.5-5.4-3.9c-2.2,0.6-3.3,3.4-2.5,6.2C317.2,115.5,319.7,117.2,321.9,116.6z M316.7,125.2c2.1-0.9,3-3.7,1.9-6.4
					s-3.7-4.1-5.8-3.3c-2.1,0.9-3,3.7-1.9,6.4C312,124.6,314.6,126.1,316.7,125.2z"/>
			</g>
			<g>
				<path class="st1" d="M187.7,107.7c-0.4,2.7-3.3,2.2-4.3,1.4c-1.1-0.8-3.4-1.7-3.4-1.7s-2.4-0.9-3.7-1s-3.8-1.7-2.3-3.9
					c1.5-2.3,3.8-1.2,5.7-4.3c1.9-3.1,4.6-1.8,4.6-1.8s2.8,0.8,2.2,4.4C185.7,104.2,188.1,105,187.7,107.7z M186.8,97
					c1.3,1,3.3,0.4,4.6-1.2c1.2-1.6,1.2-3.7-0.1-4.7s-3.3-0.4-4.6,1.2S185.5,96,186.8,97z M193,98.7c-1.2-1.1-3.3-0.8-4.7,0.7
					s-1.6,3.6-0.4,4.7c1.2,1.1,3.3,0.8,4.7-0.7S194.2,99.8,193,98.7z M181.8,95.1c1.6,0.1,3-1.4,3.2-3.4s-1-3.8-2.6-3.9
					s-3,1.4-3.2,3.4S180.2,95,181.8,95.1z M176.2,99.5c1.6,0,2.9-1.7,2.8-3.7s-1.4-3.7-3-3.6c-1.6,0-2.9,1.7-2.8,3.7
					C173.3,97.9,174.6,99.6,176.2,99.5z"/>
			</g>
		</g>
	</g>
	<g>
		<defs>
			<rect id="SVGID_5_" x="1.8" y="0" width="1020.5" height="139.3"/>
		</defs>
		<clipPath id="SVGID_6_">
			<use xlink:href="#SVGID_5_"  style="overflow:visible;"/>
		</clipPath>
		<g class="st3">
			<g>
				<path class="st1" d="M733.1,63.4c1.3,6-5.2,7.3-8.1,6.5c-2.9-0.8-8.7-0.9-8.7-0.9s-5.9,0.1-8.8,0.9c-2.9,0.8-9.4-0.5-8.1-6.5
					c1.3-6,7.1-5.8,8.6-13.9c1.6-8.1,8.2-7.6,8.2-7.6s6.7-0.5,8.2,7.6C726.1,57.6,731.8,57.4,733.1,63.4z M722.3,41.4
					c3.5,1,7.5-1.8,8.7-6.2c1.3-4.5-0.5-8.9-4.1-9.9c-3.5-1-7.5,1.8-8.7,6.2C716.9,35.9,718.8,40.4,722.3,41.4z M737,39.8
					c-3.4-1.4-7.6,1-9.4,5.3c-1.8,4.3-0.4,8.9,3,10.3c3.4,1.4,7.6-1,9.4-5.3C741.7,45.8,740.4,41.2,737,39.8z M710.2,41.4
					c3.5-1,5.4-5.5,4.1-9.9s-5.2-7.3-8.7-6.2c-3.5,1-5.4,5.5-4.1,9.9C702.7,39.6,706.7,42.4,710.2,41.4z M701.9,55.4
					c3.4-1.4,4.7-6,3-10.3s-5.9-6.7-9.4-5.3c-3.4,1.4-4.7,6-3,10.3C694.3,54.4,698.5,56.7,701.9,55.4z"/>
			</g>
			<g>
				<path class="st1" d="M952.1,77.2c0.8,3.7-3.2,4.5-5,4.1c-1.8-0.5-5.4-0.6-5.4-0.6s-3.7,0.1-5.4,0.6c-1.8,0.5-5.9-0.3-5-4.1
					c0.8-3.7,4.4-3.6,5.4-8.6s5.1-4.7,5.1-4.7s4.1-0.3,5.1,4.7C947.7,73.6,951.3,73.5,952.1,77.2z M945.4,63.6
					c2.2,0.6,4.6-1.1,5.4-3.9c0.8-2.8-0.3-5.5-2.5-6.2c-2.2-0.6-4.6,1.1-5.4,3.9C942,60.2,943.2,62.9,945.4,63.6z M954.5,62.5
					c-2.1-0.9-4.7,0.6-5.8,3.3c-1.1,2.7-0.3,5.5,1.9,6.4c2.1,0.9,4.7-0.6,5.8-3.3S956.6,63.4,954.5,62.5z M937.9,63.6
					c2.2-0.6,3.3-3.4,2.5-6.2s-3.2-4.5-5.4-3.9s-3.3,3.4-2.5,6.2C933.2,62.5,935.7,64.2,937.9,63.6z M932.7,72.2
					c2.1-0.9,3-3.7,1.9-6.4c-1.1-2.7-3.7-4.1-5.8-3.3c-2.1,0.9-3,3.7-1.9,6.4C928,71.6,930.6,73.1,932.7,72.2z"/>
			</g>
			<g>
				<path class="st1" d="M868.3,45.9c-1.3,3.6-5.2,2.2-6.4,0.8c-1.3-1.4-4.3-3.3-4.3-3.3s-3.2-1.9-4.9-2.4c-1.8-0.5-4.8-3.4-2.2-6.1
					c2.7-2.8,5.6-0.7,9.1-4.5s6.8-1.3,6.8-1.3s3.7,1.9,1.9,6.7C866.5,40.6,869.6,42.3,868.3,45.9z M869.8,30.8
					c1.5,1.7,4.5,1.5,6.7-0.4c2.1-1.9,2.6-4.9,1.1-6.6s-4.5-1.5-6.7,0.4C868.7,26.1,868.2,29.1,869.8,30.8z M878.1,34.7
					c-1.3-1.9-4.3-2-6.7-0.3c-2.3,1.7-3.1,4.6-1.8,6.4c1.3,1.8,4.3,2,6.7,0.3C878.6,39.4,879.4,36.5,878.1,34.7z M863.4,26.8
					c2.2,0.6,4.6-1.1,5.4-3.9c0.8-2.8-0.4-5.5-2.6-6.2c-2.2-0.6-4.6,1.1-5.4,3.9S861.2,26.2,863.4,26.8z M854.4,31.5
					c2.3,0.4,4.5-1.6,5-4.5c0.5-2.8-1-5.5-3.2-5.8c-2.3-0.4-4.5,1.6-5,4.5C850.7,28.5,852.2,31.1,854.4,31.5z"/>
			</g>
			<g>
				<path class="st1" d="M895.9,70.8c0.4,1.6-1.4,2-2.2,1.8s-2.4-0.2-2.4-0.2s-1.6,0-2.4,0.2c-0.8,0.2-2.6-0.1-2.2-1.8
					c0.4-1.6,1.9-1.6,2.3-3.8c0.4-2.2,2.2-2.1,2.2-2.1s1.8-0.1,2.2,2.1C893.9,69.3,895.5,69.2,895.9,70.8z M892.9,64.9
					c1,0.3,2-0.5,2.4-1.7s-0.1-2.4-1.1-2.7s-2,0.5-2.4,1.7C891.5,63.4,892,64.6,892.9,64.9z M896.9,64.4c-0.9-0.4-2.1,0.3-2.5,1.4
					c-0.5,1.2-0.1,2.4,0.8,2.8c0.9,0.4,2.1-0.3,2.5-1.4C898.2,66.1,897.8,64.8,896.9,64.4z M889.6,64.9c1-0.3,1.5-1.5,1.1-2.7
					s-1.4-2-2.4-1.7s-1.5,1.5-1.1,2.7S888.7,65.1,889.6,64.9z M887.4,68.7c0.9-0.4,1.3-1.6,0.8-2.8s-1.6-1.8-2.5-1.4
					s-1.3,1.6-0.8,2.8C885.3,68.4,886.4,69,887.4,68.7z"/>
			</g>
			<g>
				<path class="st1" d="M731.4,111.8c-1.9,3-5.1,0.9-6-0.6s-3.2-4-3.2-4s-2.5-2.4-4-3.2c-1.5-0.9-3.6-4.1-0.6-6s5.2,0.5,9.2-2.1
					c4-2.7,6.5,0.3,6.5,0.3s2.9,2.5,0.3,6.5C730.9,106.5,733.3,108.8,731.4,111.8z M736,98.3c1,1.9,3.8,2.3,6.1,1
					c2.4-1.3,3.4-3.9,2.4-5.7c-1-1.9-3.8-2.3-6.1-1C736,93.9,735,96.5,736,98.3z M742.7,103.7c-0.8-2-3.5-2.7-6-1.7s-3.8,3.5-3,5.4
					c0.8,2,3.5,2.7,6,1.7C742.1,108.1,743.5,105.7,742.7,103.7z M731,93.4c1.9,1,4.4,0,5.7-2.4s0.8-5.1-1-6.1c-1.9-1-4.4,0-5.7,2.4
					C728.7,89.6,729.2,92.4,731,93.4z M721.9,95.7c2,0.8,4.4-0.5,5.4-3s0.3-5.2-1.7-6s-4.4,0.5-5.4,3S719.9,94.9,721.9,95.7z"/>
			</g>
			<g>
				<path class="st1" d="M1016.3,49.5c1.9,3-1.3,5-3.1,5.2s-4.9,1.3-4.9,1.3s-3.2,1.3-4.6,2.3c-1.4,1-5.2,1.6-5.7-1.9
					s2.7-4.6,1.9-9.3s2.9-5.8,2.9-5.8s3.5-1.6,6,2.4C1011.3,47.8,1014.4,46.5,1016.3,49.5z M1006,39.7c2.1-0.2,3.7-2.5,3.5-5.2
					s-2.1-4.7-4.2-4.6c-2.1,0.2-3.7,2.5-3.5,5.2C1001.9,37.9,1003.8,39.9,1006,39.7z M1013.6,35.9c-2.1-0.1-3.9,2.1-4,4.8
					s1.6,4.9,3.7,5c2.1,0.1,3.9-2.1,4-4.8C1017.4,38.2,1015.7,35.9,1013.6,35.9z M999.4,42.2c1.7-1.3,1.8-4.1,0.2-6.2
					c-1.6-2.2-4.3-2.9-6-1.6c-1.7,1.3-1.8,4.1-0.2,6.2C995,42.7,997.7,43.5,999.4,42.2z M997.7,51.5c1.6-1.4,1.4-4.2-0.5-6.2
					s-4.6-2.4-6.1-1c-1.6,1.4-1.4,4.2,0.5,6.2C993.4,52.5,996.2,52.9,997.7,51.5z"/>
			</g>
			<g>
				<path class="st1" d="M712.8,135.2c0.4,1.6-1.4,2-2.2,1.8s-2.4-0.2-2.4-0.2s-1.6,0-2.4,0.2c-0.8,0.2-2.6-0.1-2.2-1.8
					s1.9-1.6,2.3-3.8c0.4-2.2,2.2-2.1,2.2-2.1s1.8-0.1,2.2,2.1C710.8,133.6,712.4,133.5,712.8,135.2z M709.8,129.2
					c1,0.3,2-0.5,2.4-1.7s-0.1-2.4-1.1-2.7c-1-0.3-2,0.5-2.4,1.7C708.4,127.7,708.9,128.9,709.8,129.2z M713.8,128.7
					c-0.9-0.4-2.1,0.3-2.5,1.4c-0.5,1.2-0.1,2.4,0.8,2.8c0.9,0.4,2.1-0.3,2.5-1.4C715.1,130.4,714.7,129.1,713.8,128.7z
					 M706.5,129.2c1-0.3,1.5-1.5,1.1-2.7s-1.4-2-2.4-1.7s-1.5,1.5-1.1,2.7S705.6,129.4,706.5,129.2z M704.3,133
					c0.9-0.4,1.3-1.6,0.8-2.8s-1.6-1.8-2.5-1.4c-0.9,0.4-1.3,1.6-0.8,2.8C702.2,132.7,703.3,133.3,704.3,133z"/>
			</g>
			<g>
				<path class="st1" d="M803.7,54.7c-0.4,2.7-3.3,2.2-4.3,1.4c-1.1-0.8-3.4-1.7-3.4-1.7s-2.4-0.9-3.7-1s-3.8-1.7-2.3-3.9
					c1.5-2.3,3.8-1.2,5.7-4.3s4.6-1.8,4.6-1.8s2.8,0.8,2.2,4.4C801.7,51.2,804.1,52,803.7,54.7z M802.8,44c1.3,1,3.3,0.4,4.6-1.2
					c1.2-1.6,1.2-3.7-0.1-4.7s-3.3-0.4-4.6,1.2S801.5,43,802.8,44z M809,45.7c-1.2-1.1-3.3-0.8-4.7,0.7s-1.6,3.6-0.4,4.7
					c1.2,1.1,3.3,0.8,4.7-0.7S810.2,46.8,809,45.7z M797.8,42.1c1.6,0.1,3-1.4,3.2-3.4s-1-3.8-2.6-3.9c-1.6-0.1-3,1.4-3.2,3.4
					C795,40.2,796.2,42,797.8,42.1z M792.2,46.5c1.6,0,2.9-1.7,2.8-3.7s-1.4-3.7-3-3.6c-1.6,0-2.9,1.7-2.8,3.7
					C789.3,44.9,790.6,46.6,792.2,46.5z"/>
			</g>
		</g>
	</g>
	<g>
		<defs>
			<rect id="SVGID_7_" x="1.8" y="0" width="1020.5" height="139.3"/>
		</defs>
		<clipPath id="SVGID_8_">
			<use xlink:href="#SVGID_7_"  style="overflow:visible;"/>
		</clipPath>
		<g class="st4">
			<g>
				<path class="st1" d="M809.1,117.4c1.3,6-5.2,7.3-8.1,6.5c-2.9-0.8-8.7-0.9-8.7-0.9s-5.9,0.1-8.8,0.9c-2.9,0.8-9.4-0.5-8.1-6.5
					c1.3-6,7.1-5.8,8.6-13.9c1.6-8.1,8.2-7.6,8.2-7.6s6.7-0.5,8.2,7.6C802.1,111.6,807.8,111.4,809.1,117.4z M798.3,95.4
					c3.5,1,7.5-1.8,8.7-6.2c1.3-4.5-0.5-8.9-4.1-9.9c-3.5-1-7.5,1.8-8.7,6.2C792.9,89.9,794.8,94.4,798.3,95.4z M813,93.8
					c-3.4-1.4-7.6,1-9.4,5.3c-1.8,4.3-0.4,8.9,3,10.3s7.6-1,9.4-5.3C817.7,99.8,816.4,95.2,813,93.8z M786.2,95.4
					c3.5-1,5.4-5.5,4.1-9.9s-5.2-7.3-8.7-6.2c-3.5,1-5.4,5.5-4.1,9.9C778.7,93.6,782.7,96.4,786.2,95.4z M777.9,109.4
					c3.4-1.4,4.7-6,3-10.3c-1.8-4.3-5.9-6.7-9.4-5.3c-3.4,1.4-4.7,6-3,10.3C770.3,108.4,774.5,110.7,777.9,109.4z"/>
			</g>
			<g>
				<path class="st1" d="M1021.1,117.2c0.8,3.7-3.2,4.5-5,4.1c-1.8-0.5-5.4-0.6-5.4-0.6s-3.7,0.1-5.4,0.6c-1.8,0.5-5.9-0.3-5-4.1
					c0.8-3.7,4.4-3.6,5.4-8.6s5.1-4.7,5.1-4.7s4.1-0.3,5.1,4.7C1016.7,113.6,1020.3,113.5,1021.1,117.2z M1014.4,103.6
					c2.2,0.6,4.6-1.1,5.4-3.9c0.8-2.8-0.3-5.5-2.5-6.2c-2.2-0.6-4.6,1.1-5.4,3.9C1011,100.2,1012.2,102.9,1014.4,103.6z
					 M1023.5,102.5c-2.1-0.9-4.7,0.6-5.8,3.3c-1.1,2.7-0.3,5.5,1.9,6.4c2.1,0.9,4.7-0.6,5.8-3.3
					C1026.4,106.3,1025.6,103.4,1023.5,102.5z M1006.9,103.6c2.2-0.6,3.3-3.4,2.5-6.2c-0.8-2.8-3.2-4.5-5.4-3.9s-3.3,3.4-2.5,6.2
					C1002.2,102.5,1004.7,104.2,1006.9,103.6z M1001.7,112.2c2.1-0.9,3-3.7,1.9-6.4s-3.7-4.1-5.8-3.3c-2.1,0.9-3,3.7-1.9,6.4
					S999.6,113.1,1001.7,112.2z"/>
			</g>
			<g>
				<path class="st1" d="M964.9,110.8c0.4,1.6-1.4,2-2.2,1.8s-2.4-0.2-2.4-0.2s-1.6,0-2.4,0.2c-0.8,0.2-2.6-0.1-2.2-1.8
					c0.4-1.6,1.9-1.6,2.3-3.8c0.4-2.2,2.2-2.1,2.2-2.1s1.8-0.1,2.2,2.1C962.9,109.3,964.5,109.2,964.9,110.8z M961.9,104.9
					c1,0.3,2-0.5,2.4-1.7s-0.1-2.4-1.1-2.7c-1-0.3-2,0.5-2.4,1.7C960.5,103.4,961,104.6,961.9,104.9z M965.9,104.4
					c-0.9-0.4-2.1,0.3-2.5,1.4c-0.5,1.2-0.1,2.4,0.8,2.8c0.9,0.4,2.1-0.3,2.5-1.4C967.2,106.1,966.8,104.8,965.9,104.4z
					 M958.6,104.9c1-0.3,1.5-1.5,1.1-2.7s-1.4-2-2.4-1.7s-1.5,1.5-1.1,2.7S957.7,105.1,958.6,104.9z M956.4,108.7
					c0.9-0.4,1.3-1.6,0.8-2.8s-1.6-1.8-2.5-1.4s-1.3,1.6-0.8,2.8C954.3,108.4,955.4,109,956.4,108.7z"/>
			</g>
			<g>
				<path class="st1" d="M872.7,110.7c-0.4,2.7-3.3,2.2-4.3,1.4c-1.1-0.8-3.4-1.7-3.4-1.7s-2.4-0.9-3.7-1s-3.8-1.7-2.3-3.9
					c1.5-2.3,3.8-1.2,5.7-4.3c1.9-3.1,4.6-1.8,4.6-1.8s2.8,0.8,2.2,4.4C870.7,107.2,873.1,108,872.7,110.7z M871.8,100
					c1.3,1,3.3,0.4,4.6-1.2c1.2-1.6,1.2-3.7-0.1-4.7s-3.3-0.4-4.6,1.2S870.5,99,871.8,100z M878,101.7c-1.2-1.1-3.3-0.8-4.7,0.7
					s-1.6,3.6-0.4,4.7c1.2,1.1,3.3,0.8,4.7-0.7S879.2,102.8,878,101.7z M866.8,98.1c1.6,0.1,3-1.4,3.2-3.4s-1-3.8-2.6-3.9
					s-3,1.4-3.2,3.4S865.2,98,866.8,98.1z M861.2,102.5c1.6,0,2.9-1.7,2.8-3.7s-1.4-3.7-3-3.6c-1.6,0-2.9,1.7-2.8,3.7
					C858.3,100.9,859.6,102.6,861.2,102.5z"/>
			</g>
		</g>
	</g>
	<g>
		<defs>
			<rect id="SVGID_9_" x="1.8" y="0" width="1020.5" height="139.3"/>
		</defs>
		<clipPath id="SVGID_10_">
			<use xlink:href="#SVGID_9_"  style="overflow:visible;"/>
		</clipPath>
		<g class="st5">
			<g>
				<g>
					<path class="st1" d="M390.1,98.4c1.3,6-5.2,7.3-8.1,6.5s-8.7-0.9-8.7-0.9s-5.9,0.1-8.8,0.9s-9.4-0.5-8.1-6.5s7.1-5.8,8.6-13.9
						c1.6-8.1,8.2-7.6,8.2-7.6s6.7-0.5,8.2,7.6C383.1,92.6,388.8,92.4,390.1,98.4z M379.3,76.4c3.5,1,7.5-1.8,8.7-6.2
						c1.3-4.5-0.5-8.9-4.1-9.9c-3.5-1-7.5,1.8-8.7,6.2C373.9,70.9,375.8,75.4,379.3,76.4z M394,74.8c-3.4-1.4-7.6,1-9.4,5.3
						s-0.4,8.9,3,10.3s7.6-1,9.4-5.3C398.7,80.8,397.4,76.2,394,74.8z M367.2,76.4c3.5-1,5.4-5.5,4.1-9.9c-1.3-4.5-5.2-7.3-8.7-6.2
						c-3.5,1-5.4,5.5-4.1,9.9C359.7,74.6,363.7,77.4,367.2,76.4z M358.9,90.4c3.4-1.4,4.7-6,3-10.3c-1.8-4.3-5.9-6.7-9.4-5.3
						c-3.4,1.4-4.7,6-3,10.3C351.3,89.4,355.5,91.7,358.9,90.4z"/>
				</g>
				<g>
					<path class="st1" d="M609.1,112.2c0.8,3.7-3.2,4.5-5,4.1c-1.8-0.5-5.4-0.6-5.4-0.6s-3.7,0.1-5.4,0.6c-1.8,0.5-5.9-0.3-5-4.1
						c0.8-3.7,4.4-3.6,5.4-8.6s5.1-4.7,5.1-4.7s4.1-0.3,5.1,4.7C604.7,108.6,608.3,108.5,609.1,112.2z M602.4,98.6
						c2.2,0.6,4.6-1.1,5.4-3.9c0.8-2.8-0.3-5.5-2.5-6.2c-2.2-0.6-4.6,1.1-5.4,3.9C599,95.2,600.2,97.9,602.4,98.6z M611.5,97.5
						c-2.1-0.9-4.7,0.6-5.8,3.3c-1.1,2.7-0.3,5.5,1.9,6.4c2.1,0.9,4.7-0.6,5.8-3.3S613.6,98.4,611.5,97.5z M594.9,98.6
						c2.2-0.6,3.3-3.4,2.5-6.2c-0.8-2.8-3.2-4.5-5.4-3.9s-3.3,3.4-2.5,6.2C590.2,97.5,592.7,99.2,594.9,98.6z M589.7,107.2
						c2.1-0.9,3-3.7,1.9-6.4s-3.7-4.1-5.8-3.3c-2.1,0.9-3,3.7-1.9,6.4S587.6,108.1,589.7,107.2z"/>
				</g>
				<g>
					<path class="st1" d="M604.1,49.2c0.8,3.7-3.2,4.5-5,4.1c-1.8-0.5-5.4-0.6-5.4-0.6s-3.7,0.1-5.4,0.6c-1.8,0.5-5.9-0.3-5-4.1
						c0.8-3.7,4.4-3.6,5.4-8.6s5.1-4.7,5.1-4.7s4.1-0.3,5.1,4.7C599.7,45.6,603.3,45.5,604.1,49.2z M597.4,35.6
						c2.2,0.6,4.6-1.1,5.4-3.9c0.8-2.8-0.3-5.5-2.5-6.2c-2.2-0.6-4.6,1.1-5.4,3.9C594,32.2,595.2,34.9,597.4,35.6z M606.5,34.5
						c-2.1-0.9-4.7,0.6-5.8,3.3s-0.3,5.5,1.9,6.4c2.1,0.9,4.7-0.6,5.8-3.3C609.4,38.3,608.6,35.4,606.5,34.5z M589.9,35.6
						c2.2-0.6,3.3-3.4,2.5-6.2s-3.2-4.5-5.4-3.9s-3.3,3.4-2.5,6.2C585.2,34.5,587.7,36.2,589.9,35.6z M584.7,44.2
						c2.1-0.9,3-3.7,1.9-6.4s-3.7-4.1-5.8-3.3c-2.1,0.9-3,3.7-1.9,6.4C580,43.6,582.6,45.1,584.7,44.2z"/>
				</g>
				<g>
					<path class="st1" d="M525.3,80.9c-1.3,3.6-5.2,2.2-6.4,0.8c-1.3-1.4-4.3-3.3-4.3-3.3s-3.2-1.9-4.9-2.4
						c-1.8-0.5-4.8-3.4-2.2-6.1s5.6-0.7,9.1-4.5c3.5-3.8,6.8-1.3,6.8-1.3s3.7,1.9,1.9,6.7C523.5,75.6,526.6,77.3,525.3,80.9z
						 M526.8,65.8c1.5,1.7,4.5,1.5,6.7-0.4c2.1-1.9,2.6-4.9,1.1-6.6c-1.5-1.7-4.5-1.5-6.7,0.4C525.7,61.1,525.2,64.1,526.8,65.8z
						 M535.1,69.7c-1.3-1.9-4.3-2-6.7-0.3c-2.3,1.7-3.1,4.6-1.8,6.4s4.3,2,6.7,0.3C535.6,74.4,536.4,71.5,535.1,69.7z M520.4,61.8
						c2.2,0.6,4.6-1.1,5.4-3.9c0.8-2.8-0.4-5.5-2.6-6.2c-2.2-0.6-4.6,1.1-5.4,3.9S518.2,61.2,520.4,61.8z M511.4,66.5
						c2.3,0.4,4.5-1.6,5-4.5c0.5-2.8-1-5.5-3.2-5.8c-2.3-0.4-4.5,1.6-5,4.5C507.7,63.5,509.2,66.1,511.4,66.5z"/>
				</g>
				<g>
					<path class="st1" d="M552.9,105.8c0.4,1.6-1.4,2-2.2,1.8s-2.4-0.2-2.4-0.2s-1.6,0-2.4,0.2c-0.8,0.2-2.6-0.1-2.2-1.8
						c0.4-1.6,1.9-1.6,2.3-3.8c0.4-2.2,2.2-2.1,2.2-2.1s1.8-0.1,2.2,2.1C550.9,104.3,552.5,104.2,552.9,105.8z M549.9,99.9
						c1,0.3,2-0.5,2.4-1.7s-0.1-2.4-1.1-2.7c-1-0.3-2,0.5-2.4,1.7C548.5,98.4,549,99.6,549.9,99.9z M553.9,99.4
						c-0.9-0.4-2.1,0.3-2.5,1.4c-0.5,1.2-0.1,2.4,0.8,2.8c0.9,0.4,2.1-0.3,2.5-1.4C555.2,101.1,554.8,99.8,553.9,99.4z M546.6,99.9
						c1-0.3,1.5-1.5,1.1-2.7s-1.4-2-2.4-1.7s-1.5,1.5-1.1,2.7S545.7,100.1,546.6,99.9z M544.4,103.7c0.9-0.4,1.3-1.6,0.8-2.8
						s-1.6-1.8-2.5-1.4s-1.3,1.6-0.8,2.8C542.3,103.4,543.4,104,544.4,103.7z"/>
				</g>
				<g>
					<path class="st1" d="M424.4,126.8c-1.9,3-5.1,0.9-6-0.6s-3.2-4-3.2-4s-2.5-2.4-4-3.2c-1.5-0.9-3.6-4.1-0.6-6s5.2,0.5,9.2-2.1
						c4-2.7,6.5,0.3,6.5,0.3s2.9,2.5,0.3,6.5C423.9,121.5,426.3,123.8,424.4,126.8z M429,113.3c1,1.9,3.8,2.3,6.1,1
						c2.4-1.3,3.4-3.9,2.4-5.7c-1-1.9-3.8-2.3-6.1-1C429,108.9,428,111.5,429,113.3z M435.7,118.7c-0.8-2-3.5-2.7-6-1.7
						s-3.8,3.5-3,5.4c0.8,2,3.5,2.7,6,1.7C435.1,123.1,436.5,120.7,435.7,118.7z M424,108.4c1.9,1,4.4,0,5.7-2.4
						c1.3-2.4,0.8-5.1-1-6.1c-1.9-1-4.4,0-5.7,2.4C421.7,104.6,422.2,107.4,424,108.4z M414.9,110.7c2,0.8,4.4-0.5,5.4-3
						s0.3-5.2-1.7-6s-4.4,0.5-5.4,3C412.2,107.2,412.9,109.9,414.9,110.7z"/>
				</g>
				<g>
					<path class="st1" d="M673.3,84.5c1.9,3-1.3,5-3.1,5.2s-4.9,1.3-4.9,1.3s-3.2,1.3-4.6,2.3c-1.4,1-5.2,1.6-5.7-1.9
						s2.7-4.6,1.9-9.3c-0.8-4.7,2.9-5.8,2.9-5.8s3.5-1.6,6,2.4C668.3,82.8,671.4,81.5,673.3,84.5z M663,74.7
						c2.1-0.2,3.7-2.5,3.5-5.2s-2.1-4.7-4.2-4.6c-2.1,0.2-3.7,2.5-3.5,5.2C658.9,72.9,660.8,74.9,663,74.7z M670.6,70.9
						c-2.1-0.1-3.9,2.1-4,4.8c-0.1,2.7,1.6,4.9,3.7,5c2.1,0.1,3.9-2.1,4-4.8C674.4,73.2,672.7,70.9,670.6,70.9z M656.4,77.2
						c1.7-1.3,1.8-4.1,0.2-6.2c-1.6-2.2-4.3-2.9-6-1.6s-1.8,4.1-0.2,6.2S654.7,78.5,656.4,77.2z M654.7,86.5
						c1.6-1.4,1.4-4.2-0.5-6.2c-1.8-2-4.6-2.4-6.1-1c-1.6,1.4-1.4,4.2,0.5,6.2C650.4,87.5,653.2,87.9,654.7,86.5z"/>
				</g>
				<g>
					<path class="st1" d="M270.8,120.2c0.4,1.6-1.4,2-2.2,1.8c-0.8-0.2-2.4-0.2-2.4-0.2s-1.6,0-2.4,0.2s-2.6-0.1-2.2-1.8
						c0.4-1.6,1.9-1.6,2.3-3.8c0.4-2.2,2.2-2.1,2.2-2.1s1.8-0.1,2.2,2.1C268.8,118.6,270.4,118.5,270.8,120.2z M267.8,114.2
						c1,0.3,2-0.5,2.4-1.7s-0.1-2.4-1.1-2.7c-1-0.3-2,0.5-2.4,1.7C266.4,112.7,266.9,113.9,267.8,114.2z M271.8,113.7
						c-0.9-0.4-2.1,0.3-2.5,1.4c-0.5,1.2-0.1,2.4,0.8,2.8s2.1-0.3,2.5-1.4C273.1,115.4,272.7,114.1,271.8,113.7z M264.5,114.2
						c1-0.3,1.5-1.5,1.1-2.7s-1.4-2-2.4-1.7s-1.5,1.5-1.1,2.7S263.6,114.4,264.5,114.2z M262.3,118c0.9-0.4,1.3-1.6,0.8-2.8
						c-0.5-1.2-1.6-1.8-2.5-1.4s-1.3,1.6-0.8,2.8C260.2,117.7,261.3,118.3,262.3,118z"/>
				</g>
				<g>
					<path class="st1" d="M460.7,89.7c-0.4,2.7-3.3,2.2-4.3,1.4c-1.1-0.8-3.4-1.7-3.4-1.7s-2.4-0.9-3.7-1c-1.3-0.1-3.8-1.7-2.3-3.9
						c1.5-2.3,3.8-1.2,5.7-4.3c1.9-3.1,4.6-1.8,4.6-1.8s2.8,0.8,2.2,4.4C458.7,86.2,461.1,87,460.7,89.7z M459.8,79
						c1.3,1,3.3,0.4,4.6-1.2c1.2-1.6,1.2-3.7-0.1-4.7c-1.3-1-3.3-0.4-4.6,1.2C458.4,75.9,458.5,78,459.8,79z M466,80.7
						c-1.2-1.1-3.3-0.8-4.7,0.7c-1.4,1.5-1.6,3.6-0.4,4.7s3.3,0.8,4.7-0.7C467,83.9,467.2,81.8,466,80.7z M454.8,77.1
						c1.6,0.1,3-1.4,3.2-3.4s-1-3.8-2.6-3.9s-3,1.4-3.2,3.4C452,75.2,453.2,77,454.8,77.1z M449.2,81.5c1.6,0,2.9-1.7,2.8-3.7
						c0-2-1.4-3.7-3-3.6c-1.6,0-2.9,1.7-2.8,3.7C446.3,79.9,447.6,81.6,449.2,81.5z"/>
				</g>
				<g>
					<path class="st1" d="M425.7,45.7c-0.4,2.7-3.3,2.2-4.3,1.4c-1.1-0.8-3.4-1.7-3.4-1.7s-2.4-0.9-3.7-1c-1.3-0.1-3.8-1.7-2.3-3.9
						c1.5-2.3,3.8-1.2,5.7-4.3c1.9-3.1,4.6-1.8,4.6-1.8s2.8,0.8,2.2,4.4C423.7,42.2,426.1,43,425.7,45.7z M424.8,35
						c1.3,1,3.3,0.4,4.6-1.2c1.2-1.6,1.2-3.7-0.1-4.7c-1.3-1-3.3-0.4-4.6,1.2C423.4,31.9,423.5,34,424.8,35z M431,36.7
						c-1.2-1.1-3.3-0.8-4.7,0.7c-1.4,1.5-1.6,3.6-0.4,4.7c1.2,1.1,3.3,0.8,4.7-0.7C432,39.9,432.2,37.8,431,36.7z M419.8,33.1
						c1.6,0.1,3-1.4,3.2-3.4s-1-3.8-2.6-3.9s-3,1.4-3.2,3.4C417,31.2,418.2,33,419.8,33.1z M414.2,37.5c1.6,0,2.9-1.7,2.8-3.7
						c0-2-1.4-3.7-3-3.6c-1.6,0-2.9,1.7-2.8,3.7C411.3,35.9,412.6,37.6,414.2,37.5z"/>
				</g>
			</g>
		</g>
	</g>
</g>
</svg>
