<?xml version="1.0" encoding="utf-8"?>
<!-- Generator: Adobe Illustrator 22.0.0, SVG Export Plug-In . SVG Version: 6.00 Build 0)  -->
<svg version="1.1" id="Layer_1" xmlns="http://www.w3.org/2000/svg" xmlns:xlink="http://www.w3.org/1999/xlink" x="0px" y="0px"
	 viewBox="0 0 146.4 79.8" style="enable-background:new 0 0 146.4 79.8;" xml:space="preserve">
<style type="text/css">
	.st0{fill:#414142;}
</style>
<g>
	<g>
		<path class="st0" d="M62.6,41.6V43c0,1.3-0.3,2.2-0.9,2.7c-0.7,0.5-1.6,0.8-2.8,0.8c-1.2,0-2.1-0.2-2.8-0.6
			c-0.9-0.5-1.3-1.6-1.3-3.2v-5.1c0-1.1,0.2-1.9,0.5-2.3c0.4-0.5,0.9-0.9,1.5-1.1c0.4-0.1,1-0.2,1.9-0.2c1.3,0,2.2,0.2,2.8,0.6
			c0.4,0.3,0.6,0.6,0.8,1.1s0.2,1,0.2,1.7v1.3h-3v-1.1c0-0.7-0.2-1.1-0.7-1.1S58,36.9,58,37.8v4.5c0,0.6,0.1,1,0.2,1.2
			s0.3,0.3,0.5,0.3c0.4,0,0.6-0.2,0.7-0.5c0.1-0.1,0.1-0.4,0.1-0.7v-1.2h3.1V41.6z"/>
		<path class="st0" d="M64,34.6h3.1v2.3c0.5-1.4,1.5-2.3,2.8-2.4v4c-0.3-0.1-0.6-0.1-0.7-0.1c-0.6,0-1,0.2-1.4,0.6
			c-0.3,0.3-0.4,0.7-0.5,1.1c0,0.4,0,0.9,0,1.4v4.8H64V34.6z"/>
		<path class="st0" d="M73.6,30.2v3h-3v-3H73.6z M73.7,34.6v11.7h-3.1V34.6H73.7z"/>
		<path class="st0" d="M78.2,38.4h-2.9c0-0.5,0-0.8,0-0.9c0-0.8,0.1-1.3,0.3-1.7c0.3-0.5,0.8-0.9,1.6-1.1c0.6-0.2,1.2-0.3,1.9-0.3
			c1.1,0,2,0.2,2.7,0.7s1.1,1.4,1.1,2.8v6.4c0,0.8,0.1,1.5,0.4,2h-3c-0.1-0.4-0.2-0.8-0.2-1.4c-0.2,0.5-0.4,0.9-0.7,1.1
			c-0.2,0.2-0.5,0.4-0.7,0.4c-0.2,0.1-0.5,0.1-0.9,0.1c-1,0-1.7-0.2-2.1-0.7c-0.3-0.4-0.5-0.8-0.6-1.3C75,44.1,75,43.6,75,43
			c0-0.9,0.1-1.6,0.2-2.1c0.2-0.7,0.7-1.1,1.5-1.5c0.2-0.1,0.8-0.3,1.8-0.6c0.9-0.3,1.4-0.7,1.4-1.2c0-0.8-0.3-1.2-0.9-1.2
			s-0.9,0.4-0.9,1.3C78.2,38,78.2,38.2,78.2,38.4z M79.9,40.8c-0.6,0.3-1.1,0.5-1.3,0.8c-0.2,0.2-0.3,0.6-0.3,1.2
			c0,0.8,0.3,1.3,0.8,1.3c0.4,0,0.6-0.2,0.7-0.6c0.1-0.2,0.1-0.5,0.1-0.9C79.9,42.6,79.9,40.8,79.9,40.8z"/>
	</g>
	<path class="st0" d="M20.4,53.6c2-0.1,3.7-0.8,5.2-1.7c1.7-1,2.4-2.1,4.1-3c3.5-2.1,6.2,0.7,4.7,3.6c-0.2,0.4-0.4,0.7-0.7,1.1
		c-0.3,0.4-0.6,0.7-0.8,1.1c0.7-0.2,1.6-0.9,2.1-1.3c2-1.7-0.1-1.2,1.2-5.3c0.8-2.5,5.3-0.6,7.9-2.5c0.9-0.7,2.3-3.3,1.5-5
		c-1.3-0.4-2.4,0.2-4.3-1.4c-1.7-1.4-1.9-2.6-2.6-3c-2.2-1.2-3.3,0.3-5.3-3.2c-0.3-0.5-0.7-1.6-1.1-1.8c-1.4,0.5-1.5,4.8-1.5,4.8
		c-0.1,0.2-0.9,1-1.1,1.2c-0.7,0.7-1.3,1.5-1.9,2.4c-2.1,2.9-4.2,7.7-5.9,11.1C21.6,51.4,20.6,53.1,20.4,53.6"/>
	<path class="st0" d="M28.1,56.5c0.4-0.3,1.3-0.8,1.8-1c5.2-3.4,4.1-8-0.1-4.9c-1.1,0.8-1.9,1.6-3.1,2.4c-3.9,2.5-9,3-13.7,1.5
		c-0.7-0.2-1.3-0.5-2-0.8c-0.6-0.3-1.3-0.8-1.8-1c0.4,1.1,2.8,3.4,3.6,4.2c7.6,6.9,19.8,7.5,28.3,1c1-0.8,5.5-4.9,5.2-6.3
		c-0.2-1.1-1.8-0.9-2.1,0c-0.1-0.8-0.1-1.8-1.1-1.7c-0.4,0-0.7,0.3-0.9,0.5l-0.6,0.7c0.1-1-0.1-1.8-1.2-1.7C39,49.5,38.5,52,36.5,54
		C34.4,56.1,29.8,57.6,28.1,56.5"/>
	<path class="st0" d="M25.4,20.7c8.5-1,15.1,3.6,18.2,8c1.8,2.5,3.2,5.7,3.6,9.6c0.5,4.5-0.5,7.5-2.1,11c0.1,0.1,0,0,0.2,0.1
		c1.1,0.3,0.8,0,1.8,1c0,0,0-0.1,0.1-0.1c0.1,0.1,1.1-2.3,1.1-2.5c0.3-0.9,0.6-1.9,0.8-2.9c0.5-2.2,0.6-4.5,0.4-6.8
		c-0.5-4.5-2-7.9-4.1-10.9c-3.6-5-11-10.1-20.5-9c-7.3,1.1-11.6,5.1-12.4,8.8c-0.7,3.1-2.6,2.2,1.1-0.5
		C15.8,25.1,19.2,22.3,25.4,20.7"/>
	<path class="st0" d="M12.7,42.9c0.9-6-5-6.6-6.1-0.3C5.5,48.9,11.8,49.1,12.7,42.9"/>
	<path class="st0" d="M13.4,42.5c0.4,6,6.7,6.9,6.2,0.6C19.1,37.2,12.9,35.9,13.4,42.5"/>
	<path class="st0" d="M7.7,36.8c1.3-5.3-5-5.3-6.1,0.1C0.6,42.1,6.4,42.2,7.7,36.8"/>
	<path class="st0" d="M18.4,36.8c1,4.8,6.9,5.7,6.1,0.3C23.7,31.9,17.3,30.9,18.4,36.8"/>
	<path class="st0" d="M13,22.9c1.1-2,2.2-3.1,4.3-3.1c2.4,0,4.3,1.8,4.3,4.1c0,4.1-4.3,8.2-8.7,12.2c-4.2-4-8.6-8.1-8.6-12.2
		c0-2.2,1.9-4.1,4.3-4.1C10.9,19.9,11.9,20.9,13,22.9"/>
	<g>
		<path class="st0" d="M87.3,34.7h0.2c0.8,0,1.5,0.2,2.2,0.7c0.5,0.5,0.8,1.2,0.8,2.1c0,0.4,0,0.8-0.1,1.2l0,0l0,0
			c0.7-1.8,1.8-2.8,3.2-2.8h0.1c0.9,0,1.7,0.3,2.3,1c0.3,0.3,0.5,0.8,0.7,1.3s0.4,2,0.5,4.3c0.1,0.8,0.2,1.3,0.3,1.6
			c0.2,0.5,0.5,0.8,0.9,1l0.3,0.1c-0.3,0.4-0.6,0.6-0.9,0.7c-0.3,0.1-0.5,0.2-0.7,0.2c-1,0-1.6-1.3-1.8-3.9c-0.4-2.5-1-3.7-1.9-3.7
			s-1.9,1.5-3,4.4c-0.4,1-0.7,1.5-1,1.5h-0.3h-0.2c-0.2,0-0.4-0.1-0.5-0.4c0-0.2-0.1-0.6-0.1-1l0.2-4.1c0-1.1-0.2-1.7-0.6-1.7h-0.1
			c-0.4,0-0.9,0.5-1.6,1.4c-0.3,0.5-0.6,1.2-1,2.3l-1.1,3.9c-0.3,0.9-0.6,1.4-1,1.4c-0.3,0-0.5-0.4-0.6-1.3v-0.4v-0.4
			c0-1.8,0.4-3.8,1.2-6.1h-0.4c-1.1,0-2-0.5-2.5-1.5l-0.2-0.4l0,0c0.6,0.3,1.2,0.4,1.8,0.4c0.9,0,1.8-0.3,2.7-1
			C85.8,35,86.5,34.7,87.3,34.7z"/>
		<path class="st0" d="M109,35.2L109,35.2c0.2,0,0.2,0.1,0.2,0.2v0.1c0,0.2-0.1,0.7-0.4,1.5c-0.6,2-1,3.7-1,4.9
			c0,0.8,0.2,1.4,0.6,1.7c0.2,0.1,0.5,0.1,0.7,0.1c1.4,0,2.4-1.3,3.1-3.9l0.4,1.4c0,1.2-0.5,2.4-1.5,3.6c-1.2,1-2.3,1.5-3.3,1.5
			h-0.4c-1,0-1.8-0.6-2.3-1.7v-0.1l0,0c-1.3,1.2-2.5,1.8-3.7,1.8l0,0c-1.3,0-2.3-0.7-2.8-2c-0.2-0.4-0.2-0.8-0.2-1.3v-0.2
			c0-1.8,1.1-3.7,3.4-5.7c1.4-1.1,2.5-1.6,3.3-1.6c0.6,0,1.1,0.3,1.5,0.8C107.1,35.8,108,35.5,109,35.2z M101,42.7
			c0,0.4,0.1,0.7,0.4,0.9l0.2,0.1h0.1c1,0,2-1.4,3.2-4.2c0.3-0.9,0.4-1.4,0.4-1.6c0-0.3-0.2-0.5-0.4-0.5l0,0c-0.7,0-1.5,0.6-2.6,1.9
			c-0.6,0.8-1,1.8-1.2,2.8L101,42.7z"/>
		<path class="st0" d="M115.1,34.5h0.2c1.6,0,2.6,0.5,2.8,1.5c0,0.1,0,0.2,0,0.4v0.1c0,0.4-0.1,0.8-0.3,1.2c0-0.2-0.2-0.5-0.5-0.9
			c-0.2-0.2-0.5-0.3-0.8-0.5c-0.4-0.1-0.7-0.2-1.1-0.2h-0.3c-1-0.1-1.7,0.1-2,0.7c-0.1,0.2-0.1,0.3-0.1,0.4v0.1
			c0.6,0.6,1.5,1.1,2.6,1.5c1.4,0.5,2.4,1,3,1.5c0.8,0.6,1.1,1.4,1.1,2.2c0,1.5-0.8,2.6-2.4,3.2c-0.7,0.2-1.3,0.3-1.9,0.3h-0.3
			c-1.5,0-2.8-0.4-4-1.1c-0.6-0.4-0.9-0.9-0.9-1.5v-0.2c0-0.8,0.6-1.3,1.7-1.7l0.4-0.1l0,0l0,0c-0.3,0.3-0.4,0.6-0.4,1v0.1
			c0,0.7,0.7,1.1,2,1.4h0.4h0.2c1.1,0,1.8-0.4,2.1-1.1l0.1-0.4v-0.1c0-0.4-0.4-0.8-1.3-1.1c-3.1-1.3-4.6-2.6-4.6-4
			c0-1.1,0.9-1.9,2.6-2.5C114,34.5,114.6,34.5,115.1,34.5z"/>
	</g>
</g>
</svg>
